Coordinates
version=1
nRows=8
nColumns=42
inDegrees=yes

Units are S.I. units (second, meters, Newtons, ...)
If the header above contains a line with 'inDegrees', this indicates whether rotational values are in degrees (yes) or radians (no).

endheader
time	pelvis_tilt	pelvis_list	pelvis_rotation	pelvis_tx	pelvis_ty	pelvis_tz	hip_flexion_r	hip_adduction_r	hip_rotation_r	knee_angle_r	knee_adduction_r	knee_angle_r_beta	ankle_angle_r	subtalar_angle_r	mtp_angle_r	hip_flexion_l	hip_adduction_l	hip_rotation_l	knee_angle_l	knee_adduction_l	knee_angle_l_beta	ankle_angle_l	subtalar_angle_l	mtp_angle_l	lumbar_extension	lumbar_bending	lumbar_rotation	arm_flex_r	arm_add_r	arm_rot_r	elbow_flex_r	pro_sup_r	wrist_flex_r	wrist_dev_r	arm_flex_l	arm_add_l	arm_rot_l	elbow_flex_l	pro_sup_l	wrist_flex_l	wrist_dev_l
      1.19000000	      8.17293077	     -0.04823131	    -14.88794090	      0.69190318	      0.93133842	     -0.21553525	    -28.06268579	     -4.11938367	     -7.89968264	     15.65234831	     -2.99512490	      0.27318501	     26.00240594	     22.87797588	     -7.53685956	     20.24528557	     -4.04581033	    -34.77624678	     10.14755937	     -4.08663263	      0.17710832	     12.13020381	     28.05306180	     -7.53685956	    -20.66982526	     -3.32205933	     10.23660051	      9.21330358	    -19.17915246	     12.12039059	     52.99671747	     90.00000001	      0.00000000	      0.00000000	    -17.03311191	     -3.90865545	     -4.55649206	     30.33184172	     90.00000001	      0.00000000	      0.00000000
      1.20000000	      8.26516257	      0.30329243	    -14.96290030	      0.71052710	      0.93044445	     -0.21603240	    -28.40726773	     -5.03260240	     -8.11377775	     17.14510152	     -2.91082340	      0.29923847	     24.09305134	     22.71415182	     -7.53615711	     20.37188529	     -3.65099634	    -34.16564532	     12.29482074	     -4.41339608	      0.21458510	     11.63465437	     27.20423974	     -7.53615711	    -20.37727267	     -3.73700192	     10.31533316	      8.55846766	    -19.01793486	     11.83504942	     52.62275088	     90.00000001	      0.00000000	      0.00000000	    -16.84953476	     -4.06858429	     -4.50228091	     30.26750492	     90.00000001	      0.00000000	      0.00000000
      1.21000000	      8.34564721	      0.73008100	    -14.92547719	      0.72926938	      0.92996604	     -0.21673799	    -28.58367092	     -5.94881209	     -8.44168141	     18.86537052	     -2.86412697	      0.32926283	     21.82950919	     22.36766554	     -7.53550235	     20.42522237	     -3.09463730	    -33.51721419	     14.28437968	     -4.71412655	      0.24930946	     10.83946710	     26.38470751	     -7.53550235	    -20.06056153	     -4.19817544	     10.26212478	      7.86266798	    -18.80132392	     11.54579744	     52.14079162	     90.00000001	      0.00000000	      0.00000000	    -16.60633062	     -4.26161303	     -4.44029993	     30.22068554	     90.00000001	      0.00000000	      0.00000000
      1.22000000	      8.44716014	      1.22363210	    -14.75782418	      0.74806278	      0.92998307	     -0.21761484	    -28.61323683	     -6.81480054	     -8.87323027	     20.80868034	     -2.94961016	      0.36317998	     19.04237807	     21.80798417	     -7.53488051	     20.39827190	     -2.38913918	    -32.91531153	     16.11893863	     -5.04583853	      0.28132855	      9.81837576	     25.68585248	     -7.53488051	    -19.77713919	     -4.71591412	     10.07987878	      7.15175195	    -18.47401699	     11.12952244	     51.46925214	     90.00000001	      0.00000000	      0.00000000	    -16.23272792	     -4.53160079	     -4.36382781	     30.12911603	     90.00000001	      0.00000000	      0.00000000
      1.23000000	      8.56516667	      1.75444674	    -14.45058627	      0.76675453	      0.93057034	     -0.21870351	    -28.54816083	     -7.62828414	     -8.94191578	     22.91042138	     -2.89397741	      0.39986229	     16.08261853	     20.37331642	     -7.53249927	     20.20853067	     -1.48852702	    -31.52124567	     17.70249487	     -5.19849551	      0.30896682	      8.69705502	     23.88232661	     -7.53249927	    -19.55440141	     -5.23970311	      9.76830804	      6.43134837	    -17.81273972	      9.97549815	     50.45380737	     90.00000001	      0.00000000	      0.00000000	    -15.73652257	     -4.79889680	     -4.11548226	     30.00437967	     90.00000001	      0.00000000	      0.00000000
      1.24000000	      8.77628002	      2.33101942	    -14.07946984	      0.78533052	      0.93149226	     -0.21990127	    -28.24684463	     -8.46456782	     -9.50839006	     25.51350008	     -3.11178646	      0.44529458	     13.05200845	     19.41891821	     -7.53200108	     20.01979076	     -0.62864675	    -31.02336304	     19.48396760	     -5.52200363	      0.34005939	      8.06648766	     23.43445152	     -7.53200108	    -19.47475669	     -5.82449573	      9.31402195	      5.71436375	    -17.58405192	      9.90968733	     49.85734780	     90.00000001	      0.00000000	      0.00000000	    -15.24587713	     -5.15350773	     -4.13301900	     30.06677028	     90.00000001	      0.00000000	      0.00000000
      1.25000000	      8.97496790	      2.87331008	    -13.59026744	      0.80373335	      0.93279771	     -0.22118480	    -27.75181545	     -9.16314803	     -9.93404516	     28.35007985	     -3.36213054	      0.49480224	      9.85826109	     17.93334342	     -7.53129518	     19.74274646	      0.25068186	    -30.13611339	     21.15747502	     -5.72521842	      0.36926760	      7.62996719	     22.61254607	     -7.53129518	    -19.44624103	     -6.34269319	      8.74625636	      5.02989058	    -17.18414164	      9.62894562	     48.94802326	     90.00000001	      0.00000000	      0.00000000	    -14.65810754	     -5.48293995	     -4.16038564	     30.12559357	     90.00000001	      0.00000000	      0.00000000
      1.26000000	      9.15819778	      3.40605328	    -13.04575496	      0.82173487	      0.93451386	     -0.22251444	    -27.05303520	     -9.75964873	     -9.69365477	     31.43712061	     -3.40357822	      0.54868126	      6.92147962	     15.12852545	     -7.52918117	     19.25305344	      1.24111024	    -28.34758617	     22.50465462	     -5.57167861	      0.39278032	      7.33122258	     20.25115501	     -7.52918117	    -19.48984723	     -6.83712063	      8.10102937	      4.48023330	    -16.53061924	      8.81151149	     47.71494901	     90.00000001	      0.00000000	      0.00000000	    -13.94025472	     -5.81324297	     -4.31676292	     30.18196346	     90.00000001	      0.00000000	      0.00000000
